<svg width="34" height="34" viewBox="0 0 34 34" fill="none" xmlns="http://www.w3.org/2000/svg">
    <g clip-path="url(#clip0_573_302)">
    <circle cx="17" cy="17" r="16" stroke="white" stroke-width="2"/>
    <path d="M22.2269 11.9071C21.2394 11.4221 20.1946 11.0774 19.1202 10.8823C18.9864 11.1363 18.83 11.4778 18.7222 11.7495C17.5639 11.5667 16.4162 11.5667 15.2791 11.7495C15.1713 11.4779 15.0115 11.1363 14.8764 10.8823C13.801 11.0775 12.7553 11.423 11.7673 11.9096C9.80117 15.0281 9.26817 18.0691 9.53464 21.067C10.8387 22.0891 12.1025 22.7101 13.3449 23.1164C13.6537 22.6707 13.9267 22.1988 14.161 21.7056C13.7149 21.5274 13.2848 21.3077 12.8759 21.0492C12.9835 20.9655 13.0886 20.8783 13.191 20.7876C15.6688 22.004 18.361 22.004 20.8092 20.7876C20.9121 20.8777 21.0171 20.9649 21.1242 21.0492C20.7147 21.3084 20.2838 21.5285 19.8368 21.7069C20.0725 22.2021 20.3449 22.6744 20.6529 23.1176C21.8965 22.7114 23.1615 22.0904 24.4655 21.067C24.7782 17.5917 23.9314 14.5786 22.2269 11.907V11.9071ZM14.4986 19.2233C13.7548 19.2233 13.1448 18.4945 13.1448 17.6069C13.1448 16.7194 13.7418 15.9893 14.4986 15.9893C15.2555 15.9893 15.8654 16.7181 15.8524 17.6069C15.8536 18.4945 15.2555 19.2233 14.4986 19.2233ZM19.5016 19.2233C18.7578 19.2233 18.1478 18.4945 18.1478 17.6069C18.1478 16.7194 18.7448 15.9893 19.5016 15.9893C20.2585 15.9893 20.8684 16.7181 20.8554 17.6069C20.8554 18.4945 20.2585 19.2233 19.5016 19.2233Z" fill="white"/>
    </g>
    <defs>
    <clipPath id="clip0_573_302">
    <rect width="34" height="34" fill="white"/>
    </clipPath>
    </defs>
    </svg>
    