<svg width="33" height="39" viewBox="0 0 33 39" fill="none" xmlns="http://www.w3.org/2000/svg">
<path d="M9.828 36.8535L12.4366 39L11.4515 37.2052C9.89741 34.3736 9.08832 31.2513 9.08832 28.0855V17.9018C9.08832 17.0122 9.24574 16.1284 9.55454 15.2845C10.4187 12.9227 12.845 11.3296 15.5778 11.3296H16.4704C19.2032 11.3296 21.6295 12.9227 22.4936 15.2845C22.8024 16.1284 22.9599 17.0122 22.9599 17.9018V28.0855C22.9599 31.2513 22.1508 34.3736 20.5967 37.2052L19.6115 39L22.2202 36.8535C25.3595 34.2704 27.6311 30.9298 28.7717 27.2188L32.0482 16.5587H30.374V14.5056C30.374 10.6585 28.6964 6.96894 25.7103 4.2486L24.5979 3.23526C22.324 1.16376 19.2399 0 16.0241 0C12.8083 0 9.72415 1.16378 7.4502 3.23531L6.3379 4.2486C3.35176 6.96894 1.67416 10.6585 1.67416 14.5056V16.5587H0L3.27649 27.2188C4.41711 30.9298 6.68869 34.2704 9.828 36.8535Z" fill="white"/>
</svg>
